<?xml version="1.0" encoding="UTF-8"?>
<svg xmlns="http://www.w3.org/2000/svg" viewBox="0 0 300 300">
  <!-- 角丸の背景（白色） -->
  <rect width="300" height="300" rx="60" ry="60" fill="#FFFFFF"/>
  <!-- アイコン（緑色、中央に配置・サイズ拡大） -->
  <g transform="translate(150, 150)">
    <g transform="scale(1.4) translate(-165, -195)">
      <path fill="#2e7d32" fill-rule="evenodd" clip-rule="evenodd" d="M166.1,230.2l16.9-8.5c.2.4.4.7.7,1.1-12,8-25.9,13.8-33.7,27.2,1.7-.2,3.3-.2,4.8-.4,1.5-.2,3-.5,4.5-.7,22.6-2.9,40.2-13.2,51.2-33.7,2-3.8,4.6-7.3,7.3-11.4,2.8,10.7,1.3,22.2-4.3,34-8,16.9-21.4,27.4-39.5,31.2-26.1,5.4-52-11.3-61.6-38.2-5.1-14.3-2.4-28,3.4-41.4,3.7-8.5,9.1-15.6,16.5-21.3,12-9.2,25.6-15.2,39.8-19.8,1.8-.6,3.5-1.2,5.3-1.8-.6,1.7-1.7,2.5-2.8,3.2-7.4,4.2-14.6,8.7-22.1,12.6-13.5,7-23.5,17.1-30.5,30.5-.6,1.1-1,2.3-1.4,3.2,6.5-2.2,12.6-4.6,18.9-6.3,6.8-1.8,13.9-2.8,20.8-4.5,14.4-3.6,28.1-9.1,38.4-20.1,15.6-16.7,18.6-37.3,16.1-60-7.6,7.5-16.6,11.1-26.1,13.6-4.2,1.1-8.4,2.1-12.6,2.9-14.1,2.5-27.7,6.7-40.2,13.4-13.9,7.4-25.1,18-32.4,32.3-8.6,16.9-13.2,34.7-10.6,53.7,2.7,19.5,11.6,35.9,26.5,48.9,13.1,11.4,28.5,17.5,45.9,17.2,36.2-.6,67.6-29,70.8-65.2,1.4-15.2-2.8-29-8.7-41.8-5.7,3.4-10.9,7.3-16.7,9.8-7.9,3.5-16.1,6.3-24.3,8.8-9.3,2.8-18.7,5.2-27,10.7-15.7,10.4-23.5,27.4-19.4,44.4,7.4-9.3,15.6-17.4,26.3-23.4"/>
    </g>
  </g>
</svg>

