<?xml version="1.0" encoding="UTF-8"?>
<svg xmlns="http://www.w3.org/2000/svg" version="1.1" viewBox="0 0 1366 404">
  <defs>
    <style>
      .st0 {
        fill: currentColor;
      }
    </style>
  </defs>
  <path class="st0" fill-rule="evenodd" clip-rule="evenodd" d="M166.1,230.2l16.9-8.5c.2.4.4.7.7,1.1-12,8-25.9,13.8-33.7,27.2,1.7-.2,3.3-.2,4.8-.4,1.5-.2,3-.5,4.5-.7,22.6-2.9,40.2-13.2,51.2-33.7,2-3.8,4.6-7.3,7.3-11.4,2.8,10.7,1.3,22.2-4.3,34-8,16.9-21.4,27.4-39.5,31.2-26.1,5.4-52-11.3-61.6-38.2-5.1-14.3-2.4-28,3.4-41.4,3.7-8.5,9.1-15.6,16.5-21.3,12-9.2,25.6-15.2,39.8-19.8,1.8-.6,3.5-1.2,5.3-1.8-.6,1.7-1.7,2.5-2.8,3.2-7.4,4.2-14.6,8.7-22.1,12.6-13.5,7-23.5,17.1-30.5,30.5-.6,1.1-1,2.3-1.4,3.2,6.5-2.2,12.6-4.6,18.9-6.3,6.8-1.8,13.9-2.8,20.8-4.5,14.4-3.6,28.1-9.1,38.4-20.1,15.6-16.7,18.6-37.3,16.1-60-7.6,7.5-16.6,11.1-26.1,13.6-4.2,1.1-8.4,2.1-12.6,2.9-14.1,2.5-27.7,6.7-40.2,13.4-13.9,7.4-25.1,18-32.4,32.3-8.6,16.9-13.2,34.7-10.6,53.7,2.7,19.5,11.6,35.9,26.5,48.9,13.1,11.4,28.5,17.5,45.9,17.2,36.2-.6,67.6-29,70.8-65.2,1.4-15.2-2.8-29-8.7-41.8-5.7,3.4-10.9,7.3-16.7,9.8-7.9,3.5-16.1,6.3-24.3,8.8-9.3,2.8-18.7,5.2-27,10.7-15.7,10.4-23.5,27.4-19.4,44.4,7.4-9.3,15.6-17.4,26.3-23.4M316.6,153.8v109.9h23.6v-95.7c4.2,5.3,7.6,10.9,11.2,16.3,17.1,25.9,34.3,51.7,51.4,77.6.5.8,1.5,1.9,2.2,1.9,7.1.1,14.1,0,21.1,0V127.7h-23.4v94.5c-1-1.4-1.7-2.3-2.4-3.3-19.8-29.8-39.6-59.6-59.4-89.3-.5-.8-1.4-1.9-2.2-2-7.3-.1-14.7,0-22.2,0v26.4M1242.9,239.3v24.5h23.6v-95.7c4.2,5.3,7.6,10.9,11.2,16.4,17,25.8,34.1,51.5,51.3,77.2.6.9,1.6,2.2,2.4,2.2,7,.2,14.1.1,21,.1V127.7h-23.4v94.5c-1-1.4-1.7-2.4-2.3-3.4-19.8-29.8-39.6-59.6-59.4-89.3-.5-.8-1.5-1.9-2.2-1.9-7.3-.1-14.7,0-22.1,0v111.8M554.4,249.3c1.1-1.1,2.2-2.1,3.2-3.3,10.3-12.9,14.9-28,16-44.2.8-11.5-.4-23-4.2-34-6.7-19.8-19.4-34.3-39.7-40.8-10-3.2-20.3-3.6-30.8-2.1-11.3,1.6-21.3,5.9-29.9,13.2-14.9,12.7-21.7,29.6-23.3,48.6-.9,10.8-.4,21.7,2.3,32.4,4,15.6,12,28.7,25.3,37.9,11.4,7.9,24.3,10.9,38.2,10.5,16.5-.5,30.8-5.9,42.9-18.1M498,243c19.5,6,39.7-2.7,47.2-24.1,3.5-9.8,5-19.9,3.5-30.5-1.3-9.6-3.6-18.4-9.3-26.4-9.4-13.3-25-17.8-39.3-14.2-13.8,3.5-22.4,13-26.9,26.2-3.6,10.5-4.3,21.3-2.6,32.3,2.5,16.9,9.9,30.2,27.4,36.6M1110.5,147.1c-9.7,11.4-13.7,25.1-14.9,39.5-1.2,14.5-.1,29,5.7,42.7,7,16.7,18.8,28.5,35.9,34.6,10.9,3.9,22.2,4.2,33.6,2.6,11.1-1.6,21.1-6,29.4-13.3,16-14.1,22.4-32.7,23.2-53.3.3-7.1-.5-14.3-1.6-21.3-2.6-16.5-9.8-30.5-23-41.1-17.3-14-36.8-16-57.7-11-12.6,3-22.3,10.4-30.7,20.6M1120.9,182c-.1,8.6-.9,17.3-.1,25.9.9,9.5,4.7,18.2,11.4,25.4,9,9.7,20.5,12.8,33.1,11.4,8.5-1,16.1-5,21.7-11.6,8.6-10,11.7-22.2,12.2-34.9.4-9.1-1.3-18-4.7-26.7-7.7-19.3-25.5-27.9-43.9-23.6-16.3,3.8-26.3,16.8-29.7,34.2M673.4,145.5c0,21.2,0,42.4,0,63.6,0,3.7-.4,7.4-.8,11.1-2.6,20.9-18.5,26-34.7,23.3-16.1-2.7-21.8-13.7-22.1-28.2-.5-27.8-.1-55.5-.1-83.3v-4.2h-23.5c0,30.1-.2,60,.1,89.9,0,6.3,1.3,12.7,3,18.8,2.9,10.4,9.5,18.3,18.7,23.8,9.6,5.8,20.6,6.3,31.4,7,4.4.3,8.9-.9,13.4-1.5,8.8-1.2,16.6-4.6,23.2-10.6,10.9-9.8,14.5-22.9,14.8-36.7.6-29.2.2-58.3.2-87.5,0-1.1-.1-2.1-.2-3.1h-23.3v17.8M882.3,127.5c-3.2,0-6.4.2-9.6,0-2.9-.3-4.1,1.1-5,3.6-4.8,13.1-9.7,26.2-14.6,39.2-7.8,20.4-15.7,40.8-23.5,61.2-4.1,10.7-8.2,21.5-12.4,32.6,8,0,15.5-.1,23,0,2.5,0,3.4-.8,4.2-3.2,2.5-7.9,5.4-15.7,8.3-23.5.4-1.1,2.1-2.5,3.2-2.5,16.3-.2,32.6-.1,49-.1,3.2,9,6.4,17.9,9.7,26.8.4,1,1.6,2.4,2.5,2.4,8,.2,16.1.1,24.7.1-17.5-45.8-34.7-91.1-52.1-136.5h-7.5M891.5,196.1c-3.9-11.1-7.8-22.2-12.1-34.3-6.3,17.5-12.3,34.2-18.2,50.8h36c-1.8-5.5-3.6-10.7-5.7-16.5M821.6,152.2c2.9-8.1,5.8-16.2,8.8-24.6h-25.2c-11.7,34.6-23.3,69.1-35.1,104-11.9-35.1-23.6-69.6-35.1-103.8h-25.2c16.2,45.6,32.3,90.8,48.5,136.2,7.2,0,14.3,0,21.4,0,1.1,0,2.9-1.1,3.3-2.1,8.8-24.6,17.4-49.3,26.1-74,4.1-11.6,8.3-23.2,12.6-35.5M993.3,235.9v-86.8h40.8v-21.4h-105v21.7h40.9v114.4h23.3v-27.8M1066.6,127.5h-14.4v136.3h23V127.5h-8.6"/>
</svg>
