<?xml version="1.0" encoding="UTF-8"?>
<svg id="Layer_1" xmlns="http://www.w3.org/2000/svg" version="1.1" viewBox="0 0 1366 404">
  <defs>
    <style>
      .st0 {
        fill: #fff;
      }
    </style>
  </defs>
  <path class="st0" d="M971.5,372H.9V33.7h1365.9v338.3h-395.3M166.1,230.2l16.9-8.5c.2.4.4.7.7,1.1-12,8-25.9,13.8-33.7,27.2,1.7-.2,3.3-.2,4.8-.4,1.5-.2,3-.5,4.5-.7,22.6-2.9,40.2-13.2,51.2-33.7,2-3.8,4.6-7.3,7.3-11.4,2.8,10.7,1.3,22.2-4.3,34-8,16.9-21.4,27.4-39.5,31.2-26.1,5.4-52-11.3-61.6-38.2-5.1-14.3-2.4-28,3.4-41.4,3.7-8.5,9.1-15.6,16.5-21.3,12-9.2,25.6-15.2,39.8-19.8,1.8-.6,3.5-1.2,5.3-1.8-.6,1.7-1.7,2.5-2.8,3.2-7.4,4.2-14.6,8.7-22.1,12.6-13.5,7-23.5,17.1-30.5,30.5-.6,1.1-1,2.3-1.4,3.2,6.5-2.2,12.6-4.6,18.9-6.3,6.8-1.8,13.9-2.8,20.8-4.5,14.4-3.6,28.1-9.1,38.4-20.1,15.6-16.7,18.6-37.3,16.1-60-7.6,7.5-16.6,11.1-26.1,13.6-4.2,1.1-8.4,2.1-12.6,2.9-14.1,2.5-27.7,6.7-40.2,13.4-13.9,7.4-25.1,18-32.4,32.3-8.6,16.9-13.2,34.7-10.6,53.7,2.7,19.5,11.6,35.9,26.5,48.9,13.1,11.4,28.5,17.5,45.9,17.2,36.2-.6,67.6-29,70.8-65.2,1.4-15.2-2.8-29-8.7-41.8-5.7,3.4-10.9,7.3-16.7,9.8-7.9,3.5-16.1,6.3-24.3,8.8-9.3,2.8-18.7,5.2-27,10.7-15.7,10.4-23.5,27.4-19.4,44.4,7.4-9.3,15.6-17.4,26.3-23.4M316.6,153.8v109.9h23.6v-95.7c4.2,5.3,7.6,10.9,11.2,16.3,17.1,25.9,34.3,51.7,51.4,77.6.5.8,1.5,1.9,2.2,1.9,7.1.1,14.1,0,21.1,0V127.7h-23.4v94.5c-1-1.4-1.7-2.3-2.4-3.3-19.8-29.8-39.6-59.6-59.4-89.3-.5-.8-1.4-1.9-2.2-2-7.3-.1-14.7,0-22.2,0v26.4M1242.9,239.3v24.5h23.6v-95.7c4.2,5.3,7.6,10.9,11.2,16.4,17,25.8,34.1,51.5,51.3,77.2.6.9,1.6,2.2,2.4,2.2,7,.2,14.1.1,21,.1V127.7h-23.4v94.5c-1-1.4-1.7-2.4-2.3-3.4-19.8-29.8-39.6-59.6-59.4-89.3-.5-.8-1.5-1.9-2.2-1.9-7.3-.1-14.7,0-22.1,0v111.8M554.4,249.3c1.1-1.1,2.2-2.1,3.2-3.3,10.3-12.9,14.9-28,16-44.2.8-11.5-.4-23-4.2-34-6.7-19.8-19.4-34.3-39.7-40.8-10-3.2-20.3-3.6-30.8-2.1-11.3,1.6-21.3,5.9-29.9,13.2-14.9,12.7-21.7,29.6-23.3,48.6-.9,10.8-.4,21.7,2.3,32.4,4,15.6,12,28.7,25.3,37.9,11.4,7.9,24.3,10.9,38.2,10.5,16.5-.5,30.8-5.9,42.9-18.1M1110.5,147.1c-9.7,11.4-13.7,25.1-14.9,39.5-1.2,14.5-.1,29,5.7,42.7,7,16.7,18.8,28.5,35.9,34.6,10.9,3.9,22.2,4.2,33.6,2.6,11.1-1.6,21.1-6,29.4-13.3,16-14.1,22.4-32.7,23.2-53.3.3-7.1-.5-14.3-1.6-21.3-2.6-16.5-9.8-30.5-23-41.1-17.3-14-36.8-16-57.7-11-12.6,3-22.3,10.4-30.7,20.6M673.4,145.5c0,21.2,0,42.4,0,63.6,0,3.7-.4,7.4-.8,11.1-2.6,20.9-18.5,26-34.7,23.3-16.1-2.7-21.8-13.7-22.1-28.2-.5-27.8-.1-55.5-.1-83.3v-4.2h-23.5c0,30.1-.2,60,.1,89.9,0,6.3,1.3,12.7,3,18.8,2.9,10.4,9.5,18.3,18.7,23.8,9.6,5.8,20.6,6.3,31.4,7,4.4.3,8.9-.9,13.4-1.5,8.8-1.2,16.6-4.6,23.2-10.6,10.9-9.8,14.5-22.9,14.8-36.7.6-29.2.2-58.3.2-87.5,0-1.1-.1-2.1-.2-3.1h-23.3v17.8M882.3,127.5c-3.2,0-6.4.2-9.6,0-2.9-.3-4.1,1.1-5,3.6-4.8,13.1-9.7,26.2-14.6,39.2-7.8,20.4-15.7,40.8-23.5,61.2-4.1,10.7-8.2,21.5-12.4,32.6,8,0,15.5-.1,23,0,2.5,0,3.4-.8,4.2-3.2,2.5-7.9,5.4-15.7,8.3-23.5.4-1.1,2.1-2.5,3.2-2.5,16.3-.2,32.6-.1,49-.1,3.2,9,6.4,17.9,9.7,26.8.4,1,1.6,2.4,2.5,2.4,8,.2,16.1.1,24.7.1-17.5-45.8-34.7-91.1-52.1-136.5h-7.5M821.6,152.2c2.9-8.1,5.8-16.2,8.8-24.6h-25.2c-11.7,34.6-23.3,69.1-35.1,104-11.9-35.1-23.6-69.6-35.1-103.8h-25.2c16.2,45.6,32.3,90.8,48.5,136.2,7.2,0,14.3,0,21.4,0,1.1,0,2.9-1.1,3.3-2.1,8.8-24.6,17.4-49.3,26.1-74,4.1-11.6,8.3-23.2,12.6-35.5M993.3,235.9v-86.8h40.8v-21.4h-105v21.7h40.9v114.4h23.3v-27.8M1066.6,127.5h-14.4v136.3h23V127.5h-8.6Z"/>
  <path class="st0" d="M165.8,230.4c-10.4,5.9-18.6,14-26,23.3-4.1-17,3.7-34,19.4-44.4,8.3-5.5,17.7-7.9,27-10.7,8.2-2.5,16.5-5.3,24.3-8.8,5.8-2.5,11-6.4,16.7-9.8,5.9,12.8,10.1,26.6,8.7,41.8-3.2,36.3-34.6,64.7-70.8,65.2-17.3.3-32.7-5.9-45.9-17.2-14.9-12.9-23.8-29.4-26.5-48.9-2.6-19,1.9-36.8,10.6-53.7,7.3-14.3,18.5-24.8,32.4-32.3,12.5-6.7,26.1-10.9,40.2-13.4,4.2-.8,8.5-1.8,12.6-2.9,9.5-2.5,18.5-6,26.1-13.6,2.5,22.7-.5,43.3-16.1,60-10.3,11-24,16.4-38.4,20.1-6.9,1.7-14,2.7-20.8,4.5-6.3,1.7-12.4,4.1-18.9,6.3.4-1,.8-2.1,1.4-3.2,7-13.3,17.1-23.5,30.5-30.5,7.5-3.9,14.8-8.4,22.1-12.6,1.1-.7,2.2-1.5,2.8-3.2-1.8.6-3.5,1.2-5.3,1.8-14.2,4.7-27.8,10.7-39.8,19.8-7.4,5.6-12.8,12.8-16.5,21.3-5.8,13.4-8.5,27.2-3.4,41.4,9.6,26.9,35.5,43.6,61.6,38.2,18.1-3.7,31.5-14.3,39.5-31.2,5.6-11.8,7.1-23.2,4.3-34-2.6,4.1-5.2,7.6-7.3,11.4-11,20.6-28.6,30.8-51.2,33.7-1.5.2-3,.5-4.5.7-1.5.2-3,.3-4.8.4,7.8-13.5,21.7-19.2,33.7-27.2-.2-.4-.4-.7-.7-1.1-5.6,2.8-11.3,5.6-17.2,8.6Z"/>
  <path class="st0" d="M316.6,153.4v-26c7.5,0,14.8,0,22.2,0,.8,0,1.7,1.1,2.2,2,19.8,29.8,39.6,59.6,59.4,89.3.6,1,1.4,1.9,2.4,3.3v-94.5h23.4v136.3c-7,0-14,0-21.1,0-.8,0-1.7-1.1-2.2-1.9-17.2-25.8-34.3-51.7-51.4-77.6-3.6-5.5-7-11.1-11.2-16.3v95.7h-23.6v-110.3Z"/>
  <path class="st0" d="M1242.9,238.9v-111.4c7.5,0,14.8,0,22.1,0,.8,0,1.7,1.1,2.2,1.9,19.8,29.8,39.6,59.5,59.4,89.3.7,1,1.3,1.9,2.3,3.4v-94.5h23.4v136.3c-6.9,0-14,0-21-.1-.8,0-1.8-1.3-2.4-2.2-17.1-25.7-34.2-51.4-51.3-77.2-3.6-5.5-7-11.1-11.2-16.4v95.7h-23.6v-24.9Z"/>
  <path class="st0" d="M554.2,249.5c-11.9,12-26.1,17.4-42.7,17.9-13.9.4-26.8-2.6-38.2-10.5-13.4-9.2-21.3-22.3-25.3-37.9-2.7-10.7-3.3-21.6-2.3-32.4,1.6-19,8.4-35.9,23.3-48.6,8.6-7.3,18.6-11.5,29.9-13.2,10.5-1.5,20.9-1.2,30.8,2.1,20.3,6.6,32.9,21,39.7,40.8,3.7,11,4.9,22.5,4.2,34-1.1,16.2-5.7,31.3-16,44.2-1,1.2-2.1,2.2-3.4,3.5M498,243c19.5,6,39.7-2.7,47.2-24.1,3.5-9.8,5-19.9,3.5-30.5-1.3-9.6-3.6-18.4-9.3-26.4-9.4-13.3-25-17.8-39.3-14.2-13.8,3.5-22.4,13-26.9,26.2-3.6,10.5-4.3,21.3-2.6,32.3,2.5,16.9,9.9,30.2,27.4,36.6Z"/>
  <path class="st0" d="M1110.6,146.8c8.3-9.9,18.1-17.2,30.6-20.3,20.9-5.1,40.4-3,57.7,11,13.1,10.6,20.4,24.7,23,41.1,1.1,7,1.9,14.2,1.6,21.3-.8,20.7-7.1,39.3-23.2,53.3-8.4,7.3-18.3,11.7-29.4,13.3-11.4,1.7-22.7,1.3-33.6-2.6-17.1-6.1-28.9-18-35.9-34.6-5.8-13.7-6.9-28.2-5.7-42.7,1.2-14.4,5.2-28.1,14.9-39.8M1120.9,182c-.1,8.6-.9,17.3-.1,25.9.9,9.5,4.7,18.2,11.4,25.4,9,9.7,20.5,12.8,33.1,11.4,8.5-1,16.1-5,21.7-11.6,8.6-10,11.7-22.2,12.2-34.9.4-9.1-1.3-18-4.7-26.7-7.7-19.3-25.5-27.9-43.9-23.6-16.3,3.8-26.3,16.8-29.7,34.2Z"/>
  <path class="st0" d="M673.4,145v-17.3h23.3c0,1,.2,2.1.2,3.1,0,29.2.4,58.3-.2,87.5-.3,13.8-3.9,26.9-14.8,36.7-6.6,6-14.4,9.4-23.2,10.6-4.5.6-9,1.8-13.4,1.5-10.8-.6-21.8-1.2-31.4-7-9.2-5.5-15.8-13.4-18.7-23.8-1.7-6.1-2.9-12.5-3-18.8-.3-29.9-.1-59.7-.1-89.9h23.5v4.2c0,27.8-.3,55.6.1,83.3.2,14.6,6,25.5,22.1,28.2,16.2,2.7,32.1-2.4,34.7-23.3.5-3.7.8-7.4.8-11.1,0-21.2,0-42.4,0-64.1Z"/>
  <path class="st0" d="M882.7,127.5h7.1c17.3,45.4,34.6,90.7,52.1,136.5-8.6,0-16.7,0-24.7-.1-.9,0-2.1-1.4-2.5-2.4-3.3-8.9-6.5-17.8-9.7-26.8-16.4,0-32.7,0-49,.1-1.1,0-2.8,1.4-3.2,2.5-3,7.8-5.8,15.6-8.3,23.5-.8,2.4-1.6,3.3-4.2,3.2-7.5-.2-15,0-23,0,4.2-11.1,8.3-21.9,12.4-32.6,7.8-20.4,15.7-40.8,23.5-61.2,5-13,9.8-26.1,14.6-39.2.9-2.5,2.1-3.8,5-3.6,3.2.3,6.4,0,10,0M891.5,196.1c-3.9-11.1-7.8-22.2-12.1-34.3-6.3,17.5-12.3,34.2-18.2,50.8h36c-1.8-5.5-3.6-10.7-5.7-16.5Z"/>
  <path class="st0" d="M821.6,152.6c-4.2,12-8.4,23.5-12.5,35.2-8.7,24.7-17.3,49.4-26.1,74-.4,1-2.1,2.1-3.3,2.1-7.1.2-14.2,0-21.4,0-16.1-45.4-32.2-90.6-48.5-136.2h25.2c11.6,34.2,23.3,68.7,35.1,103.8,11.8-34.9,23.4-69.3,35.1-104h25.2c-3,8.4-5.9,16.5-8.8,25Z"/>
  <path class="st0" d="M993.3,236.3v27.4h-23.3v-114.4h-40.9v-21.7h105v21.4h-40.8v87.2Z"/>
  <path class="st0" d="M1067,127.5h8.1v136.3h-23V127.5h14.8Z"/>
  <path class="st0" d="M497.7,243c-17.1-6.5-24.5-19.7-27-36.6-1.7-11-1-21.9,2.6-32.3,4.5-13.1,13.1-22.7,26.9-26.2,14.3-3.6,29.9.9,39.3,14.2,5.7,8,8,16.8,9.3,26.4,1.4,10.6,0,20.6-3.5,30.5-7.5,21.3-27.7,30-47.5,24.1Z"/>
  <path class="st0" d="M1121.2,181.7c3.2-17.1,13.2-30.1,29.5-33.9,18.4-4.3,36.2,4.3,43.9,23.6,3.5,8.7,5.1,17.6,4.7,26.7-.5,12.8-3.6,25-12.2,34.9-5.6,6.6-13.2,10.6-21.7,11.6-12.6,1.5-24.2-1.7-33.1-11.4-6.6-7.2-10.5-15.9-11.4-25.4-.8-8.5,0-17.2.4-26.1Z"/>
  <path class="st0" d="M891.7,196.4c1.9,5.5,3.7,10.7,5.5,16.2h-36c6-16.6,12-33.3,18.2-50.8,4.3,12.1,8.2,23.2,12.3,34.6Z"/>
</svg>
